<?xml version="1.0" encoding="UTF-8"?>
<svg width="128" height="128" version="1.1" viewBox="0 0 33.867 33.867" xmlns="http://www.w3.org/2000/svg">
 <path d="m11.118 31.803q-3.5129-0.0341-5.2181-1.296-1.7053-1.2278-1.7053-3.888v-5.0817q0-1.7053-1.0914-2.4215-1.0573-0.71622-3.1036-0.71622v-2.9331q2.0463-0.0341 3.1036-0.71621 1.0914-0.71621 1.0914-2.3874v-5.1158q0-2.6602 1.7394-3.9221 1.7735-1.2619 5.184-1.2619v2.8308q-1.6371 0.03409-2.592 0.71622-0.95496 0.648-0.95496 2.251v4.9112q0 3.4105-3.7516 4.0244v0.20463q3.7516 0.648 3.7516 4.0244v5.0135q0 1.603 0.92085 2.251 0.95496 0.648 2.6261 0.68211zm3.4787-21.725q0-1.3642 0.648-1.9099 0.68211-0.57979 1.6712-0.57979 0.95495 0 1.6371 0.57979 0.71621 0.54569 0.71621 1.9099 0 1.296-0.71621 1.8758-0.68211 0.57979-1.6371 0.57979-0.98906 0-1.6712-0.57979-0.648-0.57979-0.648-1.8758zm0 14.324q0-1.3301 0.648-1.8758 0.68211-0.54569 1.6712-0.54569 0.95495 0 1.6371 0.54569 0.71621 0.54569 0.71621 1.8758 0 1.3301-0.71621 1.9099-0.68211 0.5798-1.6371 0.5798-0.98906 0-1.6712-0.5798-0.648-0.57979-0.648-1.9099zm8.1512 4.5701q1.6371-0.0341 2.592-0.71621 0.95495-0.64801 0.95495-2.251v-4.9453q0-3.3764 3.7516-4.0244v-0.20463q-3.7516-0.648-3.7516-4.0244v-4.9794q0-1.603-0.95495-2.251-0.92085-0.648-2.592-0.68211v-2.8308q3.5129 0.0341 5.2181 1.296 1.7053 1.2278 1.7053 3.888v5.0817q0 1.7053 1.0573 2.4215 1.0914 0.71621 3.1377 0.71621v2.9331q-2.0463 0-3.1377 0.71622-1.0573 0.71622-1.0573 2.3874v5.1158q0 2.6602-1.7735 3.9221-1.7394 1.2619-5.1499 1.2619z" fill="#ffffff" aria-label="{:}"/>
</svg>
